<?xml version="1.0" encoding="utf-8"?>
<!-- Generator: Adobe Illustrator 25.2.3, SVG Export Plug-In . SVG Version: 6.00 Build 0)  -->
<svg version="1.1" id="Lager_1" xmlns="http://www.w3.org/2000/svg" xmlns:xlink="http://www.w3.org/1999/xlink" x="0px" y="0px"
	 viewBox="0 0 800 1103" style="enable-background:new 0 0 800 1103;" xml:space="preserve">
<style type="text/css">
	.st0{fill:#999999;}
	.st1{fill:none;stroke:#404040;stroke-width:4;stroke-linecap:round;stroke-linejoin:round;stroke-miterlimit:10;}
	.st2{fill:#FFFFFF;stroke:#404040;stroke-width:4;stroke-linecap:round;stroke-linejoin:round;stroke-miterlimit:10;}
	.st3{fill:#59AFE1;stroke:#404040;stroke-width:4;stroke-linejoin:round;stroke-miterlimit:10;}
	.st4{fill:#B18BE8;stroke:#404040;stroke-width:4;stroke-linecap:round;stroke-linejoin:round;stroke-miterlimit:10;}
	.st5{fill:#404040;}
	.st6{fill:#FFFFFF;stroke:#404040;stroke-width:4.0001;stroke-linecap:round;stroke-linejoin:round;stroke-miterlimit:10.0002;}
	.st7{fill:#59AFE1;stroke:#404040;stroke-width:4.0001;stroke-linejoin:round;stroke-miterlimit:10.0002;}
	.st8{fill:none;stroke:#CCCCCC;stroke-linecap:round;stroke-linejoin:round;stroke-miterlimit:10;}
	.st9{fill:#B3E3FF;stroke:#404040;stroke-width:4;stroke-linecap:round;stroke-linejoin:round;stroke-miterlimit:10;}
	.st10{fill:#414141;}
</style>
<path class="st0" d="M330.9,660.3h-4.7l-1.1,3h-1.6l4.2-10.6h1.7l4.2,10.6H332L330.9,660.3z M326.8,658.9h3.7l-1.8-4.8L326.8,658.9
	L326.8,658.9z M337.7,657.3v5.9h-1.5v-5.9h-1.3V656h1.3v-1.2c0-1.6,1.1-2.5,2.4-2.5c0.5,0,0.8,0.1,0.8,0.2v1.3
	c-0.1,0-0.3-0.1-0.6-0.1c-0.5,0-1.1,0.2-1.1,1.2v1.1h1.7v1.3H337.7L337.7,657.3z M343.6,656h1.6v1.3h-1.6v3.8c0,0.7,0.3,1,1,1
	c0.2,0,0.4,0,0.6-0.1v1.2c-0.1,0-0.5,0.1-1,0.1c-1.2,0-2-0.8-2-2.1v-4h-1.4V656h0.4c0.8,0,1.1-0.5,1.1-1.1v-1.2h1.3V656z M354,661.2
	c-0.4,1.3-1.6,2.3-3.2,2.3c-1.9,0-3.6-1.4-3.6-3.9c0-2.3,1.6-3.8,3.4-3.8c2.2,0,3.5,1.5,3.5,3.8v0.4h-5.4c0,1.3,1,2.2,2.2,2.2
	s1.8-0.6,2-1.5L354,661.2z M352.5,658.9c0-1-0.7-1.8-2-1.8c-1.2,0-1.9,0.9-2,1.8H352.5z M360.6,657.4H360c-1.2,0-2,0.6-2,2.2v3.6
	h-1.4V656h1.4v1.3c0.5-1.1,1.4-1.4,2.2-1.4h0.5v1.5L360.6,657.4z M369.1,659.1l1.9-0.3c0.4-0.1,0.6-0.3,0.6-0.5
	c0-0.7-0.5-1.3-1.6-1.3c-1,0-1.5,0.6-1.6,1.5l-1.4-0.3c0.2-1.4,1.4-2.3,3-2.3c2.2,0,3,1.2,3,2.6v3.6c0,0.6,0.1,1,0.1,1.2h-1.4
	c0-0.2-0.1-0.5-0.1-1c-0.3,0.5-1,1.2-2.3,1.2c-1.5,0-2.4-1-2.4-2.2C366.9,660,367.8,659.3,369.1,659.1L369.1,659.1z M371.6,660.1
	v-0.3l-2.2,0.3c-0.6,0.1-1.1,0.4-1.1,1.1c0,0.5,0.4,1,1.2,1C370.6,662.3,371.6,661.7,371.6,660.1z M381.9,657.5l2.9-2.6h-4.6v-1.4
	h6.6v1.3l-2.8,2.6c1.4,0,3,1,3,3c0,1.6-1.3,3.1-3.5,3.1s-3.5-1.5-3.6-3.1l1.4-0.3c0.1,1.3,1,2.1,2.2,2.1c1.3,0,2.1-0.8,2.1-1.8
	c0-1.3-1-1.8-2-1.8c-0.3,0-0.6,0.1-0.9,0.2L381.9,657.5L381.9,657.5z M388.8,659.5v-1.2h4.1v1.2H388.8z M400.9,656l1.9,5.4l1.6-5.4
	h1.5l-2.3,7.2h-1.5l-1.9-5.5l-1.9,5.5h-1.5l-2.4-7.2h1.5l1.6,5.4l1.9-5.4H400.9L400.9,656z M409.7,659.1l1.9-0.3
	c0.4-0.1,0.6-0.3,0.6-0.5c0-0.7-0.5-1.3-1.6-1.3c-1,0-1.5,0.6-1.6,1.5l-1.4-0.3c0.2-1.4,1.4-2.3,3-2.3c2.2,0,3,1.2,3,2.6v3.6
	c0,0.6,0.1,1,0.1,1.2h-1.4c0-0.2-0.1-0.5-0.1-1c-0.3,0.5-1,1.2-2.3,1.2c-1.5,0-2.4-1-2.4-2.2C407.5,660,408.5,659.3,409.7,659.1
	L409.7,659.1z M412.2,660.1v-0.3l-2.2,0.3c-0.6,0.1-1,0.4-1,1.1c0,0.5,0.4,1,1.2,1C411.3,662.3,412.2,661.7,412.2,660.1z
	 M416.7,666.2l1.8-3.8l-3.1-6.4h1.6l2.2,5l2.2-5h1.5l-4.7,10.2H416.7z M439.7,663.2V655l-3.6,8.3h-1.3l-3.6-8.3v8.3h-1.5v-10.6h2
	l3.7,8.7l3.8-8.7h2v10.6L439.7,663.2L439.7,663.2z M450.7,661.2c-0.4,1.3-1.6,2.3-3.2,2.3c-1.9,0-3.6-1.4-3.6-3.9
	c0-2.3,1.6-3.8,3.4-3.8c2.2,0,3.5,1.5,3.5,3.8v0.4h-5.4c0,1.3,1,2.2,2.2,2.2s1.8-0.6,2-1.5L450.7,661.2z M449.3,658.9
	c0-1-0.7-1.8-2-1.8c-1.2,0-1.9,0.9-2,1.8H449.3z M457.3,657.4h-0.6c-1.2,0-2,0.6-2,2.2v3.6h-1.4V656h1.4v1.3
	c0.5-1.1,1.4-1.4,2.2-1.4h0.5v1.5L457.3,657.4z M460.4,663.3c0.1,1,0.9,1.8,2,1.8c1.5,0,2.2-0.8,2.2-2.3v-1
	c-0.3,0.7-1.1,1.2-2.2,1.2c-1.9,0-3.3-1.5-3.3-3.5c0-1.9,1.3-3.5,3.3-3.5c1.1,0,1.9,0.4,2.2,1.1v-1h1.4v6.7c0,1.8-0.9,3.6-3.6,3.6
	c-1.8,0-3.1-1.1-3.3-2.7L460.4,663.3L460.4,663.3z M464.6,659.4c0-1.4-0.8-2.3-2.1-2.3c-1.2,0-2.1,0.9-2.1,2.3s0.8,2.3,2.1,2.3
	C463.7,661.7,464.6,660.8,464.6,659.4z M475.2,661.2c-0.4,1.3-1.6,2.3-3.2,2.3c-1.9,0-3.6-1.4-3.6-3.9c0-2.3,1.6-3.8,3.4-3.8
	c2.2,0,3.5,1.5,3.5,3.8v0.4h-5.4c0,1.3,1,2.2,2.2,2.2s1.8-0.6,2-1.5L475.2,661.2z M473.8,658.9c0-1-0.7-1.8-2-1.8
	c-1.2,0-1.9,0.9-2,1.8H473.8z"/>
<path class="st1" d="M702.9,1000.7v23.5 M692.1,1009.4l10.8-10.8l10.9,10.8 M530.8,874.1h-83H489 M292.8,956.1h369.1 M334.1,915.1
	c0,22.6-18.4,41-41,41H91 M334.1,915.1c0-22.6,18.4-41,41-41h30.7 M602.7,915.1c0,22.6,18.4,41,41,41h60.2 M602.7,915.1
	c0-22.6-18.4-41-41-41H531"/>
<circle class="st2" cx="236.5" cy="956.1" r="21"/>
<circle class="st2" cx="153.2" cy="956.1" r="21"/>
<circle class="st2" cx="510" cy="874.1" r="21"/>
<circle class="st2" cx="426.8" cy="874.1" r="21"/>
<circle class="st2" cx="426.8" cy="956.1" r="21"/>
<circle class="st3" cx="702.9" cy="956.1" r="21"/>
<circle class="st2" cx="70" cy="956.1" r="21"/>
<path class="st1" d="M510,831.4v-23.5 M520.9,822.7L510,833.6l-10.8-10.9"/>
<path class="st4" d="M440.1,735.9h141.6v50H440.1V735.9z"/>
<path class="st5" d="M468,759.2c-0.1-0.8-0.8-1.8-2.2-1.8c-1.2,0-2.1,0.8-2.1,1.8c0,0.8,0.5,1.4,1.4,1.5l1.6,0.3
	c1.8,0.4,2.8,1.5,2.8,3c0,1.6-1.4,3.1-3.7,3.1c-2.6,0-3.8-1.6-4-3.2l1.4-0.4c0.1,1.2,0.9,2.3,2.5,2.3c1.5,0,2.2-0.8,2.2-1.7
	c0-0.8-0.5-1.4-1.6-1.6l-1.5-0.3c-1.5-0.3-2.6-1.3-2.6-2.9c0-1.7,1.5-3.2,3.5-3.2c2.4,0,3.4,1.5,3.6,2.6L468,759.2L468,759.2z
	 M478.6,763.3c0,2.2-1.5,3.8-3.7,3.8s-3.7-1.6-3.7-3.8s1.5-3.8,3.7-3.8S478.6,761.1,478.6,763.3z M477.2,763.3
	c0-1.7-1.1-2.6-2.2-2.6s-2.2,0.9-2.2,2.6c0,1.7,1.1,2.6,2.2,2.6S477.2,765,477.2,763.3z M481.2,766.9v-7.2h1.3v1
	c0.5-0.8,1.4-1.2,2.2-1.2c0.9,0,1.8,0.4,2.2,1.4c0.6-1,1.5-1.4,2.4-1.4c1.3,0,2.5,0.9,2.5,2.7v4.7h-1.4v-4.5c0-0.9-0.5-1.6-1.5-1.6
	s-1.7,0.8-1.7,1.8v4.4h-1.4v-4.5c0-0.9-0.4-1.6-1.5-1.6c-1,0-1.7,0.8-1.7,1.8v4.3h-1.4V766.9z M501.1,764.9
	c-0.4,1.3-1.6,2.3-3.2,2.3c-1.9,0-3.6-1.4-3.6-3.9c0-2.3,1.6-3.8,3.4-3.8c2.2,0,3.5,1.5,3.5,3.8v0.4h-5.4c0,1.3,1,2.2,2.2,2.2
	s1.8-0.6,2-1.5L501.1,764.9z M499.6,762.6c0-1-0.7-1.8-2-1.8c-1.2,0-1.9,0.9-2,1.8H499.6z M508.3,766.9v-10.6h6.5v1.4h-5v3.4h4.5
	v1.4h-4.5v4.5h-1.5V766.9z M522.9,764.9c-0.4,1.3-1.6,2.3-3.2,2.3c-1.9,0-3.6-1.4-3.6-3.9c0-2.3,1.6-3.8,3.4-3.8
	c2.2,0,3.5,1.5,3.5,3.8v0.4h-5.4c0,1.3,1,2.2,2.2,2.2s1.8-0.6,2-1.5L522.9,764.9z M521.5,762.6c0-1-0.7-1.8-2-1.8
	c-1.2,0-1.9,0.9-2,1.8H521.5z M527.3,762.8l1.9-0.3c0.4-0.1,0.6-0.3,0.6-0.5c0-0.7-0.5-1.3-1.6-1.3c-1,0-1.5,0.6-1.6,1.5l-1.4-0.3
	c0.2-1.4,1.4-2.3,3-2.3c2.2,0,3,1.2,3,2.6v3.6c0,0.6,0.1,1,0.1,1.2h-1.4c0-0.2-0.1-0.5-0.1-1c-0.3,0.5-1,1.2-2.3,1.2
	c-1.5,0-2.4-1-2.4-2.2C525.1,763.7,526,763,527.3,762.8z M529.8,763.8v-0.3l-2.2,0.3c-0.6,0.1-1.1,0.4-1.1,1.1c0,0.5,0.4,1,1.2,1
	C528.9,766,529.8,765.4,529.8,763.8z M536,759.7h1.6v1.3H536v3.8c0,0.7,0.3,1,1,1c0.2,0,0.4,0,0.6-0.1v1.2c-0.1,0-0.5,0.1-1,0.1
	c-1.2,0-2-0.8-2-2.1v-4h-1.4v-1.3h0.4c0.8,0,1.1-0.5,1.1-1.1v-1.2h1.3L536,759.7L536,759.7z M542.8,767.1c-1.7,0-2.7-1.3-2.7-2.9
	v-4.5h1.4v4.3c0,1,0.4,1.9,1.6,1.9c1.1,0,1.7-0.8,1.7-1.8v-4.4h1.4v5.9c0,0.6,0,1.1,0.1,1.3H545c0-0.2-0.1-0.6-0.1-0.9
	C544.6,766.8,543.7,767.1,542.8,767.1L542.8,767.1z M553.5,761.1h-0.6c-1.2,0-2,0.6-2,2.2v3.6h-1.4v-7.2h1.4v1.3
	c0.5-1.1,1.4-1.4,2.2-1.4h0.5v1.5L553.5,761.1z M561.9,764.9c-0.4,1.3-1.6,2.3-3.2,2.3c-1.9,0-3.6-1.4-3.6-3.9
	c0-2.3,1.6-3.8,3.4-3.8c2.2,0,3.5,1.5,3.5,3.8v0.4h-5.4c0,1.3,1,2.2,2.2,2.2s1.8-0.6,2-1.5L561.9,764.9z M560.5,762.6
	c0-1-0.7-1.8-2-1.8c-1.2,0-1.9,0.9-2,1.8H560.5z"/>
<path class="st0" d="M346.9,7.8c2,0,3.2,1.2,3.2,2.9c0,1.1-0.7,2-1.6,2.3c1.2,0.3,1.9,1.4,1.9,2.6c0,1.7-1.3,2.9-3.3,2.9h-3.7V7.8
	H346.9z M346.8,12.5c1.2,0,1.9-0.7,1.9-1.7s-0.7-1.7-1.9-1.7H345v3.4H346.8z M347,17.2c1.2,0,2-0.7,2-1.7s-0.6-1.7-1.9-1.7H345v3.4
	H347z M359.4,16.4c-0.4,1.3-1.6,2.3-3.2,2.3c-1.9,0-3.6-1.4-3.6-3.9c0-2.3,1.6-3.8,3.4-3.8c2.2,0,3.5,1.5,3.5,3.8v0.5H354
	c0,1.3,1,2.2,2.2,2.2s1.8-0.6,2-1.5L359.4,16.4z M358,14.1c0-1-0.7-1.8-2-1.8c-1.2,0-1.9,0.9-2,1.8H358z M363.9,12.5v5.9h-1.5v-5.9
	h-1.3v-1.3h1.3V10c0-1.6,1.1-2.5,2.4-2.5c0.5,0,0.8,0.1,0.8,0.2V9c-0.1,0-0.3-0.1-0.6-0.1c-0.5,0-1.1,0.2-1.1,1.2v1.1h1.7v1.3H363.9
	L363.9,12.5z M374.4,14.8c0,2.2-1.5,3.8-3.7,3.8S367,17,367,14.8s1.5-3.8,3.7-3.8S374.4,12.6,374.4,14.8z M373,14.8
	c0-1.7-1.1-2.6-2.2-2.6s-2.2,0.9-2.2,2.6s1.1,2.6,2.2,2.6S373,16.5,373,14.8z M381,12.7h-0.6c-1.2,0-2,0.6-2,2.2v3.6H377v-7.2h1.4
	v1.3c0.5-1.1,1.4-1.4,2.2-1.4h0.5v1.5C381.1,12.7,381,12.7,381,12.7z M389.4,16.4c-0.4,1.3-1.6,2.3-3.2,2.3c-1.9,0-3.6-1.4-3.6-3.9
	c0-2.3,1.6-3.8,3.4-3.8c2.2,0,3.5,1.5,3.5,3.8v0.5H384c0,1.3,1,2.2,2.2,2.2s1.8-0.6,2-1.5L389.4,16.4z M388,14.1c0-1-0.7-1.8-2-1.8
	c-1.2,0-1.9,0.9-2,1.8H388z M406.7,18.5v-8.3l-3.6,8.3h-1.3l-3.6-8.3v8.3h-1.5V7.8h2l3.7,8.7l3.8-8.7h2v10.6L406.7,18.5L406.7,18.5z
	 M417.8,16.4c-0.4,1.3-1.6,2.3-3.2,2.3c-1.9,0-3.6-1.4-3.6-3.9c0-2.3,1.6-3.8,3.4-3.8c2.2,0,3.5,1.5,3.5,3.8v0.5h-5.4
	c0,1.3,1,2.2,2.2,2.2s1.8-0.6,2-1.5L417.8,16.4z M416.3,14.1c0-1-0.7-1.8-2-1.8c-1.2,0-1.9,0.9-2,1.8H416.3z M424.4,12.7h-0.6
	c-1.2,0-2,0.6-2,2.2v3.6h-1.4v-7.2h1.4v1.3c0.5-1.1,1.4-1.4,2.2-1.4h0.5v1.5L424.4,12.7z M427.4,18.5c0.1,1,0.9,1.8,2,1.8
	c1.5,0,2.2-0.8,2.2-2.3v-1c-0.3,0.7-1.1,1.2-2.2,1.2c-1.9,0-3.3-1.5-3.3-3.5s1.3-3.5,3.3-3.5c1.1,0,1.9,0.4,2.2,1.1v-1h1.4V18
	c0,1.8-0.9,3.6-3.6,3.6c-1.8,0-3.1-1.1-3.3-2.7L427.4,18.5z M431.6,14.6c0-1.4-0.8-2.3-2.1-2.3c-1.2,0-2.1,0.9-2.1,2.3
	s0.8,2.3,2.1,2.3S431.6,16,431.6,14.6z M436.6,7.5c0.6,0,1,0.5,1,1c0,0.6-0.4,1-1,1s-1-0.5-1-1C435.6,7.9,436.1,7.5,436.6,7.5z
	 M435.9,18.5v-7.2h1.4v7.2H435.9z M441.9,18.5h-1.4v-7.2h1.4v1c0.5-0.9,1.4-1.2,2.2-1.2c1.7,0,2.6,1.2,2.6,2.8v4.6h-1.4v-4.3
	c0-1-0.4-1.8-1.7-1.8c-1.1,0-1.7,0.9-1.7,2V18.5z M450.5,18.5c0.1,1,0.9,1.8,2,1.8c1.5,0,2.2-0.8,2.2-2.3v-1
	c-0.3,0.7-1.1,1.2-2.2,1.2c-1.9,0-3.3-1.5-3.3-3.5s1.3-3.5,3.3-3.5c1.1,0,1.9,0.4,2.2,1.1v-1h1.4V18c0,1.8-0.9,3.6-3.6,3.6
	c-1.8,0-3.1-1.1-3.3-2.7L450.5,18.5z M454.7,14.6c0-1.4-0.8-2.3-2.1-2.3c-1.2,0-2.1,0.9-2.1,2.3s0.8,2.3,2.1,2.3
	S454.7,16,454.7,14.6z"/>
<path class="st1" d="M511.4,355.3v23.5 M500.5,364l10.9-10.9l10.9,10.9 M615.4,228.6h-83h41.2 M377.5,310.6h112.9 M418.7,269.6
	c0,22.6-18.4,41-41,41H175.6 M418.7,269.6c0-22.6,18.4-41,41-41h30.7"/>
<circle class="st2" cx="321.1" cy="310.6" r="21"/>
<circle class="st2" cx="237.9" cy="310.6" r="21"/>
<circle class="st2" cx="594.6" cy="228.6" r="21"/>
<ellipse transform="matrix(0.3162 -0.9487 0.9487 0.3162 132.8161 641.4708)" class="st6" cx="511.4" cy="228.6" rx="21" ry="21"/>
<ellipse transform="matrix(0.3162 -0.9487 0.9487 0.3162 55.0239 697.541)" class="st7" cx="511.4" cy="310.6" rx="21" ry="21"/>
<circle class="st2" cx="154.6" cy="310.6" r="21"/>
<path class="st1" d="M594.6,185.9v-23.5 M605.5,177.2l-10.9,10.9l-10.8-10.9"/>
<path class="st4" d="M524.8,90.4h141.6v50H524.8V90.4z"/>
<path class="st5" d="M552.6,113.7c-0.1-0.8-0.8-1.8-2.2-1.8c-1.2,0-2.1,0.8-2.1,1.8c0,0.8,0.5,1.4,1.4,1.5l1.6,0.3
	c1.8,0.4,2.8,1.5,2.8,3c0,1.6-1.4,3.1-3.7,3.1c-2.6,0-3.8-1.6-4-3.2l1.4-0.4c0.1,1.2,0.9,2.3,2.5,2.3c1.5,0,2.2-0.8,2.2-1.7
	c0-0.8-0.5-1.4-1.6-1.6l-1.5-0.3c-1.5-0.3-2.6-1.3-2.6-2.9c0-1.7,1.5-3.2,3.5-3.2c2.4,0,3.4,1.5,3.6,2.6L552.6,113.7L552.6,113.7z
	 M563.3,117.8c0,2.2-1.5,3.8-3.7,3.8s-3.7-1.6-3.7-3.8c0-2.2,1.5-3.8,3.7-3.8S563.3,115.6,563.3,117.8z M561.8,117.8
	c0-1.7-1.1-2.6-2.2-2.6s-2.2,0.9-2.2,2.6s1.1,2.6,2.2,2.6S561.8,119.5,561.8,117.8z M565.8,121.5v-7.2h1.3v1
	c0.5-0.8,1.4-1.2,2.2-1.2c0.9,0,1.8,0.4,2.2,1.4c0.6-1,1.5-1.4,2.4-1.4c1.3,0,2.5,0.9,2.5,2.7v4.7H575V117c0-0.9-0.5-1.6-1.5-1.6
	s-1.7,0.8-1.7,1.8v4.4h-1.4v-4.5c0-0.9-0.4-1.6-1.5-1.6c-1,0-1.7,0.8-1.7,1.8v4.3h-1.4L565.8,121.5z M585.7,119.4
	c-0.4,1.3-1.6,2.3-3.2,2.3c-1.9,0-3.6-1.4-3.6-3.9c0-2.3,1.6-3.8,3.4-3.8c2.2,0,3.5,1.5,3.5,3.8v0.4h-5.4c0,1.3,1,2.2,2.2,2.2
	s1.8-0.6,2-1.5L585.7,119.4z M584.3,117.1c0-1-0.7-1.8-2-1.8c-1.2,0-1.9,0.9-2,1.8H584.3z M592.9,121.5v-10.6h6.5v1.4h-5v3.4h4.5
	v1.4h-4.5v4.5h-1.5V121.5z M607.6,119.4c-0.4,1.3-1.6,2.3-3.2,2.3c-1.9,0-3.6-1.4-3.6-3.9c0-2.3,1.6-3.8,3.4-3.8
	c2.2,0,3.5,1.5,3.5,3.8v0.4h-5.4c0,1.3,1,2.2,2.2,2.2s1.8-0.6,2-1.5L607.6,119.4z M606.1,117.1c0-1-0.7-1.8-2-1.8
	c-1.2,0-1.9,0.9-2,1.8H606.1z M611.9,117.3l1.9-0.3c0.4-0.1,0.6-0.3,0.6-0.5c0-0.7-0.5-1.3-1.6-1.3c-1,0-1.5,0.6-1.6,1.5l-1.4-0.3
	c0.2-1.4,1.4-2.3,3-2.3c2.2,0,3,1.2,3,2.6v3.6c0,0.6,0.1,1,0.1,1.2h-1.4c0-0.2-0.1-0.5-0.1-1c-0.3,0.5-1,1.2-2.3,1.2
	c-1.5,0-2.4-1-2.4-2.2C609.7,118.2,610.7,117.5,611.9,117.3L611.9,117.3z M614.4,118.4V118l-2.2,0.3c-0.6,0.1-1.1,0.4-1.1,1.1
	c0,0.5,0.4,1,1.2,1C613.5,120.5,614.4,119.9,614.4,118.4z M620.6,114.2h1.6v1.3h-1.6v3.8c0,0.7,0.3,1,1,1c0.2,0,0.4,0,0.6-0.1v1.2
	c-0.1,0-0.5,0.1-1,0.1c-1.2,0-2-0.8-2-2.1v-4h-1.4v-1.3h0.4c0.8,0,1.1-0.5,1.1-1.1v-1h1.3L620.6,114.2L620.6,114.2z M627.5,121.7
	c-1.7,0-2.7-1.3-2.7-2.9v-4.5h1.4v4.3c0,1,0.4,1.9,1.6,1.9c1.1,0,1.7-0.8,1.7-1.8v-4.4h1.4v5.9c0,0.6,0,1.1,0.1,1.3h-1.4
	c0-0.2-0.1-0.6-0.1-0.9C629.2,121.3,628.3,121.7,627.5,121.7z M638.1,115.7h-0.6c-1.2,0-2,0.6-2,2.2v3.6h-1.4v-7.2h1.4v1.3
	c0.5-1.1,1.4-1.4,2.2-1.4h0.5v1.5H638.1z M646.5,119.4c-0.4,1.3-1.6,2.3-3.2,2.3c-1.9,0-3.6-1.4-3.6-3.9c0-2.3,1.6-3.8,3.4-3.8
	c2.2,0,3.5,1.5,3.5,3.8v0.4h-5.4c0,1.3,1,2.2,2.2,2.2s1.8-0.6,2-1.5L646.5,119.4z M645.1,117.1c0-1-0.7-1.8-2-1.8
	c-1.2,0-1.9,0.9-2,1.8H645.1z"/>
<path class="st8" d="M129.3,551.8h541.4"/>
<g>
	<path class="st9" d="M463.3,398.8h96.2v50h-96.2V398.8z"/>
	<g>
		<path class="st10" d="M496.2,429.9v-10h2l2.4,7.1c0.2,0.7,0.4,1.2,0.5,1.5c0.1-0.4,0.3-0.9,0.5-1.6l2.4-7h1.8v10h-1.3v-8.4
			l-2.9,8.4h-1.2l-2.9-8.5v8.5H496.2z"/>
		<path class="st10" d="M513.2,429c-0.5,0.4-0.9,0.7-1.3,0.8c-0.4,0.2-0.9,0.2-1.4,0.2c-0.8,0-1.4-0.2-1.8-0.6s-0.6-0.9-0.6-1.5
			c0-0.4,0.1-0.7,0.2-1c0.2-0.3,0.4-0.5,0.6-0.7c0.3-0.2,0.6-0.3,0.9-0.4c0.2-0.1,0.6-0.1,1.1-0.2c1-0.1,1.7-0.3,2.2-0.4
			c0-0.2,0-0.3,0-0.3c0-0.5-0.1-0.9-0.3-1.1c-0.3-0.3-0.8-0.4-1.4-0.4s-1,0.1-1.3,0.3c-0.3,0.2-0.5,0.6-0.6,1.1l-1.2-0.2
			c0.1-0.5,0.3-0.9,0.5-1.2c0.3-0.3,0.6-0.6,1.1-0.7c0.5-0.2,1-0.3,1.6-0.3c0.6,0,1.1,0.1,1.5,0.2s0.7,0.3,0.9,0.6
			c0.2,0.2,0.3,0.5,0.4,0.8c0,0.2,0.1,0.6,0.1,1.1v1.6c0,1.1,0,1.9,0.1,2.2c0.1,0.3,0.2,0.6,0.3,0.9h-1.3
			C513.3,429.7,513.2,429.4,513.2,429z M513.1,426.3c-0.4,0.2-1.1,0.3-2,0.5c-0.5,0.1-0.9,0.2-1.1,0.2s-0.4,0.2-0.5,0.4
			s-0.2,0.4-0.2,0.6c0,0.3,0.1,0.6,0.4,0.8c0.2,0.2,0.6,0.3,1.1,0.3s0.9-0.1,1.3-0.3c0.4-0.2,0.6-0.5,0.8-0.9
			c0.1-0.3,0.2-0.7,0.2-1.2V426.3L513.1,426.3z"/>
		<path class="st10" d="M516.9,421.3v-1.4h1.2v1.4H516.9z M516.9,429.9v-7.3h1.2v7.3H516.9z"/>
		<path class="st10" d="M520.7,429.9v-7.3h1.1v1c0.5-0.8,1.3-1.2,2.3-1.2c0.4,0,0.8,0.1,1.2,0.2c0.4,0.2,0.6,0.4,0.8,0.6
			s0.3,0.6,0.4,0.9c0,0.2,0.1,0.6,0.1,1.2v4.5h-1.2v-4.4c0-0.5,0-0.9-0.1-1.1s-0.3-0.4-0.5-0.6c-0.2-0.1-0.5-0.2-0.9-0.2
			c-0.5,0-1,0.2-1.4,0.5s-0.6,1-0.6,1.9v4H520.7z"/>
	</g>
</g>
<g>
	<path class="st9" d="M654.8,1044.2H751v50h-96.2V1044.2z"/>
	<g>
		<path class="st10" d="M687.7,1075.3v-10h2l2.4,7.1c0.2,0.7,0.4,1.2,0.5,1.5c0.1-0.4,0.3-0.9,0.5-1.6l2.4-7h1.8v10H696v-8.4
			l-2.9,8.4h-1.2l-2.9-8.5v8.5H687.7z"/>
		<path class="st10" d="M704.7,1074.4c-0.5,0.4-0.9,0.7-1.3,0.8c-0.4,0.2-0.9,0.2-1.4,0.2c-0.8,0-1.4-0.2-1.8-0.6
			c-0.4-0.4-0.6-0.9-0.6-1.5c0-0.4,0.1-0.7,0.2-1c0.2-0.3,0.4-0.5,0.6-0.7c0.3-0.2,0.6-0.3,0.9-0.4c0.2-0.1,0.6-0.1,1.1-0.2
			c1-0.1,1.7-0.3,2.2-0.4c0-0.2,0-0.3,0-0.3c0-0.5-0.1-0.9-0.3-1.1c-0.3-0.3-0.8-0.4-1.4-0.4c-0.6,0-1,0.1-1.3,0.3
			c-0.3,0.2-0.5,0.6-0.6,1.1l-1.2-0.2c0.1-0.5,0.3-0.9,0.5-1.2c0.3-0.3,0.6-0.6,1.1-0.7c0.5-0.2,1-0.3,1.6-0.3s1.1,0.1,1.5,0.2
			s0.7,0.3,0.9,0.6c0.2,0.2,0.3,0.5,0.4,0.8c0,0.2,0.1,0.6,0.1,1.1v1.6c0,1.1,0,1.9,0.1,2.2c0.1,0.3,0.2,0.6,0.3,0.9H705
			C704.8,1075.1,704.7,1074.8,704.7,1074.4z M704.6,1071.7c-0.4,0.2-1.1,0.3-2,0.5c-0.5,0.1-0.9,0.2-1.1,0.2s-0.4,0.2-0.5,0.4
			c-0.1,0.2-0.2,0.4-0.2,0.6c0,0.3,0.1,0.6,0.4,0.8c0.2,0.2,0.6,0.3,1.1,0.3s0.9-0.1,1.3-0.3c0.4-0.2,0.6-0.5,0.8-0.9
			c0.1-0.3,0.2-0.7,0.2-1.2V1071.7L704.6,1071.7z"/>
		<path class="st10" d="M708.4,1066.7v-1.4h1.2v1.4H708.4z M708.4,1075.3v-7.3h1.2v7.3H708.4z"/>
		<path class="st10" d="M712.2,1075.3v-7.3h1.1v1c0.5-0.8,1.3-1.2,2.3-1.2c0.4,0,0.8,0.1,1.2,0.2c0.4,0.2,0.6,0.4,0.8,0.6
			s0.3,0.6,0.4,0.9c0,0.2,0.1,0.6,0.1,1.2v4.5h-1.2v-4.4c0-0.5,0-0.9-0.1-1.1s-0.3-0.4-0.5-0.6c-0.2-0.1-0.5-0.2-0.9-0.2
			c-0.5,0-1,0.2-1.4,0.5s-0.6,1-0.6,1.9v4H712.2z"/>
	</g>
</g>
</svg>
