<?xml version="1.0" encoding="utf-8"?>
<svg version="1.1" id="Lager_1" xmlns="http://www.w3.org/2000/svg" xmlns:xlink="http://www.w3.org/1999/xlink" x="0px" y="0px"
	 viewBox="0 0 800 907" style="enable-background:new 0 0 800 907;" xml:space="preserve">
<style type="text/css">
	.st0{fill:none;stroke:#404040;stroke-width:4;stroke-linecap:round;stroke-linejoin:round;stroke-miterlimit:10;}
	.st1{fill:#59AFE1;stroke:#404040;stroke-width:4;stroke-linejoin:round;stroke-miterlimit:10;}
	.st2{fill:#FFFFFF;stroke:#404040;stroke-width:4;stroke-linecap:round;stroke-linejoin:round;stroke-miterlimit:10;}
	.st3{fill:#B18BE8;stroke:#404040;stroke-width:4;stroke-linecap:round;stroke-linejoin:round;stroke-miterlimit:10;}
	.st4{fill:#404040;}
	.st5{fill:none;stroke:#CCCCCC;stroke-linecap:round;stroke-linejoin:round;stroke-miterlimit:10;}
	.st6{fill:#999999;}
	.st7{fill:#B3E3FF;stroke:#404040;stroke-width:4;stroke-linecap:round;stroke-linejoin:round;stroke-miterlimit:10;}
	.st8{fill:#414141;}
</style>
<path class="st0" d="M321.6,272.5V249 M332.4,263.8l-10.8,10.9l-10.9-10.9 M615.9,235.4h-83h41.2 M419.2,276.4c0,22.6-18.4,41-41,41
	H176 M419.2,276.4c0-22.6,18.4-41,41-41h30.7"/>
<circle class="st1" cx="321.6" cy="317.4" r="21"/>
<ellipse transform="matrix(0.1602 -0.9871 0.9871 0.1602 197.5424 702.9832)" class="st2" cx="511.9" cy="235.4" rx="21" ry="21"/>
<circle class="st2" cx="595.1" cy="235.4" r="21"/>
<ellipse transform="matrix(0.1602 -0.9871 0.9871 0.1602 -113.173 501.7811)" class="st2" cx="238.3" cy="317.4" rx="21" ry="21"/>
<circle class="st2" cx="155.1" cy="317.4" r="21"/>
<path class="st3" d="M524.3,99.5h141.6v50H524.3L524.3,99.5z"/>
<path class="st4" d="M552.1,122.8c-0.1-0.8-0.8-1.8-2.2-1.8c-1.2,0-2.1,0.8-2.1,1.8c0,0.8,0.5,1.3,1.4,1.5l1.6,0.3
	c1.8,0.4,2.8,1.5,2.8,3c0,1.6-1.4,3.1-3.7,3.1c-2.6,0-3.8-1.6-4-3.2l1.4-0.4c0.1,1.2,0.9,2.3,2.5,2.3c1.5,0,2.2-0.8,2.2-1.7
	c0-0.8-0.5-1.4-1.6-1.7l-1.5-0.3c-1.5-0.3-2.6-1.3-2.6-2.9c0-1.7,1.5-3.2,3.5-3.2c2.4,0,3.4,1.5,3.6,2.6L552.1,122.8L552.1,122.8z
	 M562.8,126.9c0,2.2-1.5,3.8-3.7,3.8s-3.7-1.6-3.7-3.8s1.5-3.8,3.7-3.8S562.8,124.7,562.8,126.9z M561.4,126.9
	c0-1.7-1.1-2.6-2.2-2.6s-2.2,0.9-2.2,2.6c0,1.7,1.1,2.6,2.2,2.6S561.4,128.6,561.4,126.9z M565.3,130.5v-7.2h1.3v1
	c0.5-0.8,1.4-1.2,2.2-1.2c0.9,0,1.8,0.4,2.2,1.4c0.6-1,1.5-1.4,2.4-1.4c1.3,0,2.5,0.9,2.5,2.7v4.7h-1.4V126c0-0.9-0.5-1.6-1.5-1.6
	s-1.7,0.8-1.7,1.8v4.4H570V126c0-0.9-0.4-1.6-1.5-1.6c-1,0-1.7,0.8-1.7,1.8v4.3L565.3,130.5L565.3,130.5z M585.2,128.5
	c-0.4,1.3-1.6,2.3-3.2,2.3c-1.9,0-3.6-1.4-3.6-3.9c0-2.3,1.6-3.8,3.4-3.8c2.2,0,3.5,1.5,3.5,3.8v0.5h-5.4c0,1.3,1,2.2,2.2,2.2
	s1.8-0.6,2-1.5L585.2,128.5z M583.8,126.2c0-1-0.7-1.8-2-1.8c-1.2,0-1.9,0.9-2,1.8H583.8z M592.5,130.5v-10.6h6.5v1.4h-5v3.4h4.5
	v1.4H594v4.5h-1.5V130.5z M607.1,128.5c-0.4,1.3-1.6,2.3-3.2,2.3c-1.9,0-3.6-1.4-3.6-3.9c0-2.3,1.6-3.8,3.4-3.8
	c2.2,0,3.5,1.5,3.5,3.8v0.5h-5.4c0,1.3,1,2.2,2.2,2.2s1.8-0.6,2-1.5L607.1,128.5z M605.7,126.2c0-1-0.7-1.8-2-1.8
	c-1.2,0-1.9,0.9-2,1.8H605.7z M611.4,126.4l1.9-0.3c0.4-0.1,0.6-0.3,0.6-0.5c0-0.7-0.5-1.3-1.6-1.3c-1,0-1.5,0.6-1.6,1.5l-1.4-0.3
	c0.2-1.4,1.4-2.3,3-2.3c2.2,0,3,1.2,3,2.6v3.6c0,0.6,0.1,1,0.1,1.2H614c0-0.2-0.1-0.5-0.1-1c-0.3,0.5-1,1.2-2.3,1.2
	c-1.5,0-2.4-1-2.4-2.2C609.3,127.3,610.2,126.6,611.4,126.4L611.4,126.4z M613.9,127.5v-0.3l-2.2,0.3c-0.6,0.1-1.1,0.4-1.1,1.1
	c0,0.5,0.4,1,1.2,1C613,129.6,613.9,129,613.9,127.5z M620.2,123.3h1.6v1.3h-1.6v3.8c0,0.7,0.3,1,1,1c0.2,0,0.4,0,0.6-0.1v1.2
	c-0.1,0-0.5,0.1-1,0.1c-1.2,0-2-0.8-2-2.1v-4h-1.4v-1.3h0.4c0.8,0,1.1-0.5,1.1-1.1V121h1.3L620.2,123.3L620.2,123.3z M627,130.8
	c-1.7,0-2.7-1.3-2.7-2.9v-4.5h1.4v4.3c0,1,0.4,1.9,1.6,1.9c1.1,0,1.7-0.8,1.7-1.8v-4.3h1.4v5.9c0,0.6,0,1.1,0.1,1.3h-1.4
	c0-0.2-0.1-0.6-0.1-0.9C628.7,130.4,627.8,130.8,627,130.8z M637.6,124.8H637c-1.2,0-2,0.6-2,2.2v3.6h-1.4v-7.2h1.4v1.3
	c0.5-1.1,1.4-1.4,2.2-1.4h0.5v1.5L637.6,124.8z M646.1,128.5c-0.4,1.3-1.6,2.3-3.2,2.3c-1.9,0-3.6-1.4-3.6-3.9
	c0-2.3,1.6-3.8,3.4-3.8c2.2,0,3.5,1.5,3.5,3.8v0.5h-5.4c0,1.3,1,2.2,2.2,2.2s1.8-0.6,2-1.5L646.1,128.5z M644.7,126.2
	c0-1-0.7-1.8-2-1.8c-1.2,0-1.9,0.9-2,1.8H644.7z"/>
<path class="st0" d="M595.1,192.7v-23.5 M606,184l-10.9,10.9L584.2,184"/>
<path class="st5" d="M129.3,441.1h541.4"/>
<path class="st6" d="M346.9,17.1c2,0,3.2,1.2,3.2,2.9c0,1.1-0.7,2-1.6,2.3c1.2,0.3,1.9,1.4,1.9,2.6c0,1.7-1.3,2.9-3.3,2.9h-3.7V17.1
	C343.4,17.1,346.9,17.1,346.9,17.1z M346.8,21.8c1.2,0,1.9-0.7,1.9-1.7s-0.7-1.7-1.9-1.7H345v3.4C345,21.8,346.8,21.8,346.8,21.8z
	 M347,26.5c1.2,0,2-0.7,2-1.7s-0.6-1.7-1.9-1.7H345v3.4C345,26.5,347,26.5,347,26.5z M359.4,25.7c-0.4,1.3-1.6,2.3-3.2,2.3
	c-1.9,0-3.6-1.4-3.6-3.9c0-2.3,1.6-3.8,3.4-3.8c2.2,0,3.5,1.5,3.5,3.8v0.4H354c0,1.3,1,2.2,2.2,2.2s1.8-0.6,2-1.5L359.4,25.7z
	 M358,23.4c0-1-0.7-1.8-2-1.8c-1.2,0-1.9,0.9-2,1.8H358z M363.9,21.8v5.9h-1.5v-5.9h-1.3v-1.3h1.3v-1.2c0-1.6,1.1-2.5,2.4-2.5
	c0.5,0,0.8,0.1,0.8,0.2v1.3c-0.1,0-0.3-0.1-0.6-0.1c-0.5,0-1.1,0.2-1.1,1.2v1.1h1.7v1.3H363.9L363.9,21.8z M374.4,24.1
	c0,2.2-1.5,3.8-3.7,3.8s-3.7-1.6-3.7-3.8s1.5-3.8,3.7-3.8S374.4,21.9,374.4,24.1z M373,24.1c0-1.7-1.1-2.6-2.2-2.6s-2.2,0.9-2.2,2.6
	s1.1,2.6,2.2,2.6S373,25.8,373,24.1z M381,22h-0.6c-1.2,0-2,0.6-2,2.2v3.6H377v-7.2h1.4v1.3c0.5-1.1,1.4-1.4,2.2-1.4h0.5V22L381,22z
	 M389.4,25.7c-0.4,1.3-1.6,2.3-3.2,2.3c-1.9,0-3.6-1.4-3.6-3.9c0-2.3,1.6-3.8,3.4-3.8c2.2,0,3.5,1.5,3.5,3.8v0.4H384
	c0,1.3,1,2.2,2.2,2.2s1.8-0.6,2-1.5L389.4,25.7z M388,23.4c0-1-0.7-1.8-2-1.8c-1.2,0-1.9,0.9-2,1.8H388z M406.7,27.7v-8.3l-3.6,8.3
	h-1.3l-3.6-8.3v8.3h-1.5V17.1h2l3.7,8.7l3.8-8.7h2v10.6C408.2,27.7,406.7,27.7,406.7,27.7z M417.8,25.7c-0.4,1.3-1.6,2.3-3.2,2.3
	c-1.9,0-3.6-1.4-3.6-3.9c0-2.3,1.6-3.8,3.4-3.8c2.2,0,3.5,1.5,3.5,3.8v0.4h-5.4c0,1.3,1,2.2,2.2,2.2s1.8-0.6,2-1.5L417.8,25.7z
	 M416.3,23.4c0-1-0.7-1.8-2-1.8c-1.2,0-1.9,0.9-2,1.8H416.3z M424.4,22h-0.6c-1.2,0-2,0.6-2,2.2v3.6h-1.4v-7.2h1.4v1.3
	c0.5-1.1,1.4-1.4,2.2-1.4h0.5V22H424.4z M427.4,27.8c0.1,1,0.9,1.8,2,1.8c1.5,0,2.2-0.8,2.2-2.3v-1c-0.3,0.7-1.1,1.2-2.2,1.2
	c-1.9,0-3.3-1.5-3.3-3.5c0-1.9,1.3-3.5,3.3-3.5c1.1,0,1.9,0.4,2.2,1.1v-1h1.4v6.7c0,1.8-0.9,3.6-3.6,3.6c-1.8,0-3.1-1.1-3.3-2.7
	L427.4,27.8z M431.6,23.9c0-1.4-0.8-2.3-2.1-2.3c-1.2,0-2.1,0.9-2.1,2.3s0.8,2.3,2.1,2.3S431.6,25.3,431.6,23.9z M436.6,16.8
	c0.6,0,1,0.4,1,1s-0.4,1-1,1s-1-0.5-1-1C435.6,17.2,436.1,16.8,436.6,16.8z M435.9,27.7v-7.2h1.4v7.2
	C437.3,27.7,435.9,27.7,435.9,27.7z M441.9,27.7h-1.4v-7.2h1.4v1c0.5-0.9,1.4-1.2,2.2-1.2c1.7,0,2.6,1.2,2.6,2.9v4.6h-1.4v-4.3
	c0-1-0.4-1.8-1.7-1.8c-1.1,0-1.7,0.9-1.7,2C441.9,23.7,441.9,27.7,441.9,27.7z M450.5,27.8c0.1,1,0.9,1.8,2,1.8
	c1.5,0,2.2-0.8,2.2-2.3v-1c-0.3,0.7-1.1,1.2-2.2,1.2c-1.9,0-3.3-1.5-3.3-3.5c0-1.9,1.3-3.5,3.3-3.5c1.1,0,1.9,0.4,2.2,1.1v-1h1.4
	v6.7c0,1.8-0.9,3.6-3.6,3.6c-1.8,0-3.1-1.1-3.3-2.7L450.5,27.8z M454.7,23.9c0-1.4-0.8-2.3-2.1-2.3c-1.2,0-2.1,0.9-2.1,2.3
	s0.8,2.3,2.1,2.3S454.7,25.3,454.7,23.9z"/>
<path class="st0" d="M595.6,805.9v23.5 M584.7,814.6l10.9-10.8l10.8,10.8 M615.4,763.6h-83h41.2 M418.7,804.6c0,22.6-18.4,41-41,41
	H175.6 M418.7,804.6c0-22.6,18.4-41,41-41h30.7"/>
<circle class="st2" cx="321.1" cy="845.6" r="21"/>
<circle class="st2" cx="237.9" cy="845.6" r="21"/>
<circle class="st1" cx="594.6" cy="763.6" r="21"/>
<ellipse transform="matrix(0.1602 -0.9871 0.9871 0.1602 -324.2571 1146.0814)" class="st2" cx="511.4" cy="763.6" rx="21" ry="21"/>
<circle class="st2" cx="154.6" cy="845.6" r="21"/>
<path class="st0" d="M594.6,720.9v-23.5 M605.5,712.2l-10.9,10.9l-10.8-10.9"/>
<path class="st6" d="M331.9,549.8h-4.7l-1.1,3h-1.6l4.2-10.6h1.7l4.2,10.6H333L331.9,549.8z M327.8,548.4h3.7l-1.8-4.8L327.8,548.4
	L327.8,548.4z M338.7,546.8v5.9h-1.5v-5.9h-1.3v-1.3h1.3v-1.2c0-1.6,1.1-2.5,2.4-2.5c0.5,0,0.8,0.1,0.8,0.2v1.3
	c-0.1,0-0.3-0.1-0.6-0.1c-0.5,0-1.1,0.2-1.1,1.2v1.1h1.7v1.3H338.7L338.7,546.8z M344.6,545.5h1.6v1.3h-1.6v3.8c0,0.7,0.3,1,1,1
	c0.2,0,0.4,0,0.6-0.1v1.2c-0.1,0-0.5,0.1-1,0.1c-1.2,0-2-0.8-2-2.1v-4h-1.4v-1.3h0.4c0.8,0,1.1-0.5,1.1-1.1v-1.2h1.3V545.5
	L344.6,545.5z M355,550.7c-0.4,1.3-1.6,2.3-3.2,2.3c-1.9,0-3.6-1.4-3.6-3.9c0-2.3,1.6-3.8,3.4-3.8c2.2,0,3.5,1.5,3.5,3.8v0.4h-5.4
	c0,1.3,1,2.2,2.2,2.2s1.8-0.6,2-1.5L355,550.7z M353.5,548.4c0-1-0.7-1.8-2-1.8c-1.2,0-1.9,0.9-2,1.8H353.5z M361.6,547H361
	c-1.2,0-2,0.6-2,2.2v3.6h-1.4v-7.2h1.4v1.3c0.5-1.1,1.4-1.4,2.2-1.4h0.5v1.5L361.6,547z M370.1,548.6l1.9-0.3
	c0.4-0.1,0.6-0.3,0.6-0.5c0-0.7-0.5-1.3-1.6-1.3c-1,0-1.5,0.6-1.6,1.5l-1.4-0.3c0.2-1.4,1.4-2.3,3-2.3c2.2,0,3,1.2,3,2.6v3.6
	c0,0.6,0.1,1,0.1,1.2h-1.4c0-0.2-0.1-0.5-0.1-1c-0.3,0.5-1,1.2-2.3,1.2c-1.5,0-2.4-1-2.4-2.2C367.9,549.5,368.8,548.8,370.1,548.6
	L370.1,548.6z M372.6,549.7v-0.3l-2.2,0.3c-0.6,0.1-1.1,0.4-1.1,1.1c0,0.5,0.4,1,1.2,1C371.6,551.8,372.6,551.2,372.6,549.7z
	 M381.6,552.7v-10.6h6.5v1.4h-5v3.4h4.5v1.4H383v4.5h-1.4V552.7z M391.6,548.6l1.9-0.3c0.4-0.1,0.6-0.3,0.6-0.5
	c0-0.7-0.5-1.3-1.6-1.3c-1,0-1.5,0.6-1.6,1.5l-1.4-0.3c0.2-1.4,1.4-2.3,3-2.3c2.2,0,3,1.2,3,2.6v3.6c0,0.6,0.1,1,0.1,1.2h-1.4
	c0-0.2-0.1-0.5-0.1-1c-0.3,0.5-1,1.2-2.3,1.2c-1.5,0-2.4-1-2.4-2.2C389.5,549.5,390.4,548.8,391.6,548.6L391.6,548.6z M394.2,549.7
	v-0.3l-2.2,0.3c-0.6,0.1-1,0.4-1,1.1c0,0.5,0.4,1,1.2,1C393.2,551.8,394.2,551.2,394.2,549.7z M399.1,550.4c0.1,0.8,0.7,1.3,1.7,1.3
	c0.8,0,1.2-0.4,1.2-1c0-0.4-0.3-0.8-0.9-0.9l-1.2-0.3c-1.1-0.2-1.8-1-1.8-2c0-1.2,1.2-2.3,2.6-2.3c2,0,2.6,1.3,2.7,1.9l-1.2,0.5
	c-0.1-0.4-0.4-1.2-1.5-1.2c-0.7,0-1.2,0.5-1.2,1c0,0.4,0.3,0.8,0.8,0.9l1.2,0.3c1.3,0.3,2,1.1,2,2.1s-0.9,2.2-2.6,2.2
	c-2,0-2.8-1.3-2.9-2.1L399.1,550.4L399.1,550.4z M407.9,545.5h1.6v1.3h-1.6v3.8c0,0.7,0.3,1,1,1c0.2,0,0.4,0,0.6-0.1v1.2
	c-0.1,0-0.5,0.1-1,0.1c-1.2,0-2-0.8-2-2.1v-4h-1.4v-1.3h0.4c0.8,0,1.1-0.5,1.1-1.1v-1.2h1.3V545.5L407.9,545.5z M411.6,549.1v-1.2
	h4.1v1.2H411.6z M418.4,552.7v-10.6h6.5v1.4h-5v3.4h4.5v1.4h-4.5v4.5h-1.5V552.7z M433.5,549.1c0,2.2-1.5,3.8-3.7,3.8
	s-3.7-1.6-3.7-3.8s1.5-3.8,3.7-3.8S433.5,546.9,433.5,549.1z M432.1,549.1c0-1.7-1.1-2.6-2.2-2.6s-2.2,0.9-2.2,2.6
	c0,1.7,1.1,2.6,2.2,2.6S432.1,550.8,432.1,549.1z M440.1,547h-0.6c-1.2,0-2,0.6-2,2.2v3.6h-1.4v-7.2h1.4v1.3
	c0.5-1.1,1.4-1.4,2.2-1.4h0.5v1.5L440.1,547z M448,545.5l1.9,5.4l1.6-5.4h1.5l-2.3,7.2h-1.5l-1.9-5.5l-1.9,5.5h-1.5l-2.4-7.2h1.5
	l1.6,5.4l1.9-5.4H448L448,545.5z M456.8,548.6l1.9-0.3c0.4-0.1,0.6-0.3,0.6-0.5c0-0.7-0.5-1.3-1.6-1.3c-1,0-1.5,0.6-1.6,1.5
	l-1.4-0.3c0.2-1.4,1.4-2.3,3-2.3c2.2,0,3,1.2,3,2.6v3.6c0,0.6,0.1,1,0.1,1.2h-1.4c0-0.2-0.1-0.5-0.1-1c-0.3,0.5-1,1.2-2.3,1.2
	c-1.5,0-2.4-1-2.4-2.2C454.6,549.5,455.6,548.8,456.8,548.6L456.8,548.6z M459.3,549.7v-0.3l-2.2,0.3c-0.6,0.1-1.1,0.4-1.1,1.1
	c0,0.5,0.4,1,1.2,1C458.4,551.8,459.3,551.2,459.3,549.7z M467.7,547h-0.6c-1.2,0-2,0.6-2,2.2v3.6h-1.4v-7.2h1.4v1.3
	c0.5-1.1,1.4-1.4,2.2-1.4h0.5v1.5L467.7,547z M474.9,551.7c-0.3,0.7-1.1,1.3-2.2,1.3c-2.1,0-3.4-1.7-3.4-3.8c0-2,1.4-3.8,3.4-3.8
	c1.3,0,2,0.6,2.2,1.2v-4.7h1.4v9.5c0,0.7,0.1,1.2,0.1,1.3H475C475,552.5,474.9,552.2,474.9,551.7z M472.8,551.7
	c1.3,0,2.1-1.1,2.1-2.6s-0.8-2.5-2.1-2.5s-2.1,1-2.1,2.5S471.4,551.7,472.8,551.7z M494.1,552.7v-8.3l-3.6,8.3h-1.3l-3.6-8.3v8.3
	h-1.5v-10.6h2l3.7,8.7l3.8-8.7h2v10.6H494.1z M505.1,550.7c-0.4,1.3-1.6,2.3-3.2,2.3c-1.9,0-3.6-1.4-3.6-3.9c0-2.3,1.6-3.8,3.4-3.8
	c2.2,0,3.5,1.5,3.5,3.8v0.4h-5.4c0,1.3,1,2.2,2.2,2.2s1.8-0.6,2-1.5L505.1,550.7z M503.7,548.4c0-1-0.7-1.8-2-1.8
	c-1.2,0-1.9,0.9-2,1.8H503.7z M511.7,547h-0.6c-1.2,0-2,0.6-2,2.2v3.6h-1.4v-7.2h1.4v1.3c0.5-1.1,1.4-1.4,2.2-1.4h0.5v1.5L511.7,547
	z M514.7,552.8c0.1,1,0.9,1.8,2,1.8c1.5,0,2.2-0.8,2.2-2.3v-1c-0.3,0.7-1.1,1.2-2.2,1.2c-1.9,0-3.3-1.5-3.3-3.5
	c0-1.9,1.3-3.5,3.3-3.5c1.1,0,1.9,0.4,2.2,1.1v-1h1.4v6.7c0,1.8-0.9,3.6-3.6,3.6c-1.8,0-3.1-1.1-3.3-2.7L514.7,552.8L514.7,552.8z
	 M519,548.9c0-1.4-0.8-2.3-2.1-2.3c-1.2,0-2.1,0.9-2.1,2.3s0.8,2.3,2.1,2.3C518.1,551.2,519,550.3,519,548.9z M529.6,550.7
	c-0.4,1.3-1.6,2.3-3.2,2.3c-1.9,0-3.6-1.4-3.6-3.9c0-2.3,1.6-3.8,3.4-3.8c2.2,0,3.5,1.5,3.5,3.8v0.4h-5.4c0,1.3,1,2.2,2.2,2.2
	s1.8-0.6,2-1.5L529.6,550.7z M528.2,548.4c0-1-0.7-1.8-2-1.8c-1.2,0-1.9,0.9-2,1.8H528.2z"/>
<path class="st3" d="M524.8,625.4h141.6v50H524.8L524.8,625.4z"/>
<path class="st4" d="M552.6,648.7c-0.1-0.8-0.8-1.8-2.2-1.8c-1.2,0-2.1,0.8-2.1,1.8c0,0.8,0.5,1.4,1.4,1.5l1.6,0.3
	c1.8,0.4,2.8,1.5,2.8,3c0,1.6-1.4,3.1-3.7,3.1c-2.6,0-3.8-1.6-4-3.2l1.4-0.4c0.1,1.2,0.9,2.3,2.5,2.3c1.5,0,2.2-0.8,2.2-1.7
	c0-0.8-0.5-1.4-1.6-1.6l-1.5-0.3c-1.5-0.3-2.6-1.3-2.6-2.9c0-1.7,1.5-3.2,3.5-3.2c2.4,0,3.4,1.5,3.6,2.6L552.6,648.7L552.6,648.7z
	 M563.3,652.8c0,2.2-1.5,3.8-3.7,3.8s-3.7-1.6-3.7-3.8s1.5-3.8,3.7-3.8S563.3,650.6,563.3,652.8z M561.8,652.8
	c0-1.7-1.1-2.6-2.2-2.6s-2.2,0.9-2.2,2.6c0,1.7,1.1,2.6,2.2,2.6S561.8,654.5,561.8,652.8z M565.8,656.4v-7.2h1.3v1
	c0.5-0.8,1.4-1.2,2.2-1.2c0.9,0,1.8,0.4,2.2,1.4c0.6-1,1.5-1.4,2.4-1.4c1.3,0,2.5,0.9,2.5,2.7v4.7H575v-4.5c0-0.9-0.5-1.6-1.5-1.6
	s-1.7,0.8-1.7,1.8v4.4h-1.4V652c0-0.9-0.4-1.6-1.5-1.6c-1,0-1.7,0.8-1.7,1.8v4.3h-1.4L565.8,656.4z M585.7,654.4
	c-0.4,1.3-1.6,2.3-3.2,2.3c-1.9,0-3.6-1.4-3.6-3.9c0-2.3,1.6-3.8,3.4-3.8c2.2,0,3.5,1.5,3.5,3.8v0.4h-5.4c0,1.3,1,2.2,2.2,2.2
	s1.8-0.6,2-1.5L585.7,654.4z M584.3,652.1c0-1-0.7-1.8-2-1.8c-1.2,0-1.9,0.9-2,1.8H584.3z M592.9,656.4v-10.6h6.5v1.4h-5v3.4h4.5
	v1.4h-4.5v4.5h-1.5V656.4z M607.6,654.4c-0.4,1.3-1.6,2.3-3.2,2.3c-1.9,0-3.6-1.4-3.6-3.9c0-2.3,1.6-3.8,3.4-3.8
	c2.2,0,3.5,1.5,3.5,3.8v0.4h-5.4c0,1.3,1,2.2,2.2,2.2s1.8-0.6,2-1.5L607.6,654.4z M606.1,652.1c0-1-0.7-1.8-2-1.8
	c-1.2,0-1.9,0.9-2,1.8H606.1z M611.9,652.3l1.9-0.3c0.4-0.1,0.6-0.3,0.6-0.5c0-0.7-0.5-1.3-1.6-1.3c-1,0-1.5,0.6-1.6,1.5l-1.4-0.3
	c0.2-1.4,1.4-2.3,3-2.3c2.2,0,3,1.2,3,2.6v3.6c0,0.6,0.1,1,0.1,1.2h-1.4c0-0.2-0.1-0.5-0.1-1c-0.3,0.5-1,1.2-2.3,1.2
	c-1.5,0-2.4-1-2.4-2.2C609.7,653.2,610.7,652.5,611.9,652.3z M614.4,653.3V653l-2.2,0.3c-0.6,0.1-1.1,0.4-1.1,1.1c0,0.5,0.4,1,1.2,1
	C613.5,655.5,614.4,654.9,614.4,653.3z M620.6,649.2h1.6v1.3h-1.6v3.8c0,0.7,0.3,1,1,1c0.2,0,0.4,0,0.6-0.1v1.2
	c-0.1,0-0.5,0.1-1,0.1c-1.2,0-2-0.8-2-2.1v-4h-1.4v-1.3h0.4c0.8,0,1.1-0.5,1.1-1.1v-1.2h1.3L620.6,649.2L620.6,649.2z M627.5,656.7
	c-1.7,0-2.7-1.3-2.7-2.9v-4.5h1.4v4.3c0,1,0.4,1.9,1.6,1.9c1.1,0,1.7-0.8,1.7-1.8v-4.4h1.4v5.9c0,0.6,0,1.1,0.1,1.3h-1.4
	c0-0.2-0.1-0.6-0.1-0.9C629.2,656.3,628.3,656.7,627.5,656.7L627.5,656.7z M638.1,650.6h-0.6c-1.2,0-2,0.6-2,2.2v3.6h-1.4v-7.2h1.4
	v1.3c0.5-1.1,1.4-1.4,2.2-1.4h0.5v1.5L638.1,650.6z M646.5,654.4c-0.4,1.3-1.6,2.3-3.2,2.3c-1.9,0-3.6-1.4-3.6-3.9
	c0-2.3,1.6-3.8,3.4-3.8c2.2,0,3.5,1.5,3.5,3.8v0.4h-5.4c0,1.3,1,2.2,2.2,2.2s1.8-0.6,2-1.5L646.5,654.4z M645.1,652.1
	c0-1-0.7-1.8-2-1.8c-1.2,0-1.9,0.9-2,1.8H645.1z"/>
<g>
	<path class="st7" d="M273.5,176.9h96.2v50h-96.2V176.9z"/>
	<g>
		<path class="st8" d="M306.4,208v-10h2l2.4,7.1c0.2,0.7,0.4,1.2,0.5,1.5c0.1-0.4,0.3-0.9,0.5-1.6l2.4-7h1.8v10h-1.3v-8.4l-2.9,8.4
			h-1.2l-2.9-8.5v8.5H306.4z"/>
		<path class="st8" d="M323.4,207.1c-0.5,0.4-0.9,0.7-1.3,0.8c-0.4,0.2-0.9,0.2-1.4,0.2c-0.8,0-1.4-0.2-1.8-0.6s-0.6-0.9-0.6-1.5
			c0-0.4,0.1-0.7,0.2-1c0.2-0.3,0.4-0.5,0.6-0.7c0.3-0.2,0.6-0.3,0.9-0.4c0.2-0.1,0.6-0.1,1.1-0.2c1-0.1,1.7-0.3,2.2-0.4
			c0-0.2,0-0.3,0-0.3c0-0.5-0.1-0.9-0.3-1.1c-0.3-0.3-0.8-0.4-1.4-0.4s-1,0.1-1.3,0.3c-0.3,0.2-0.5,0.6-0.6,1.1l-1.2-0.2
			c0.1-0.5,0.3-0.9,0.5-1.2c0.3-0.3,0.6-0.6,1.1-0.7c0.5-0.2,1-0.3,1.6-0.3c0.6,0,1.1,0.1,1.5,0.2c0.4,0.1,0.7,0.3,0.9,0.6
			c0.2,0.2,0.3,0.5,0.4,0.8c0,0.2,0.1,0.6,0.1,1.1v1.6c0,1.1,0,1.9,0.1,2.2c0.1,0.3,0.2,0.6,0.3,0.9h-1.3
			C323.5,207.8,323.4,207.5,323.4,207.1z M323.3,204.4c-0.4,0.2-1.1,0.3-2,0.5c-0.5,0.1-0.9,0.2-1.1,0.2c-0.2,0-0.4,0.2-0.5,0.4
			c-0.1,0.2-0.2,0.4-0.2,0.6c0,0.3,0.1,0.6,0.4,0.8c0.2,0.2,0.6,0.3,1.1,0.3s0.9-0.1,1.3-0.3c0.4-0.2,0.6-0.5,0.8-0.9
			c0.1-0.3,0.2-0.7,0.2-1.2V204.4L323.3,204.4z"/>
		<path class="st8" d="M327.1,199.4V198h1.2v1.4H327.1z M327.1,208v-7.3h1.2v7.3H327.1z"/>
		<path class="st8" d="M330.9,208v-7.3h1.1v1c0.5-0.8,1.3-1.2,2.3-1.2c0.4,0,0.8,0.1,1.2,0.2c0.4,0.2,0.6,0.4,0.8,0.6
			c0.2,0.2,0.3,0.6,0.4,0.9c0,0.2,0.1,0.6,0.1,1.2v4.5h-1.2v-4.4c0-0.5,0-0.9-0.1-1.1c-0.1-0.2-0.3-0.4-0.5-0.6
			c-0.2-0.1-0.5-0.2-0.9-0.2c-0.5,0-1,0.2-1.4,0.5c-0.4,0.3-0.6,1-0.6,1.9v4H330.9z"/>
	</g>
</g>
<g>
	<path class="st7" d="M547.5,849.4h96.2v50h-96.2V849.4z"/>
	<g>
		<path class="st8" d="M580.4,880.5v-10h2l2.4,7.1c0.2,0.7,0.4,1.2,0.5,1.5c0.1-0.4,0.3-0.9,0.5-1.6l2.4-7h1.8v10h-1.3v-8.4
			l-2.9,8.4h-1.2l-2.9-8.5v8.5H580.4z"/>
		<path class="st8" d="M597.4,879.6c-0.5,0.4-0.9,0.7-1.3,0.8c-0.4,0.2-0.9,0.2-1.4,0.2c-0.8,0-1.4-0.2-1.8-0.6
			c-0.4-0.4-0.6-0.9-0.6-1.5c0-0.4,0.1-0.7,0.2-1c0.2-0.3,0.4-0.5,0.6-0.7c0.3-0.2,0.6-0.3,0.9-0.4c0.2-0.1,0.6-0.1,1.1-0.2
			c1-0.1,1.7-0.3,2.2-0.4c0-0.2,0-0.3,0-0.3c0-0.5-0.1-0.9-0.3-1.1c-0.3-0.3-0.8-0.4-1.4-0.4c-0.6,0-1,0.1-1.3,0.3
			c-0.3,0.2-0.5,0.6-0.6,1.1l-1.2-0.2c0.1-0.5,0.3-0.9,0.5-1.2c0.3-0.3,0.6-0.6,1.1-0.7c0.5-0.2,1-0.3,1.6-0.3s1.1,0.1,1.5,0.2
			c0.4,0.1,0.7,0.3,0.9,0.6c0.2,0.2,0.3,0.5,0.4,0.8c0,0.2,0.1,0.6,0.1,1.1v1.6c0,1.1,0,1.9,0.1,2.2c0.1,0.3,0.2,0.6,0.3,0.9h-1.3
			C597.5,880.3,597.4,880,597.4,879.6z M597.3,876.9c-0.4,0.2-1.1,0.3-2,0.5c-0.5,0.1-0.9,0.2-1.1,0.2s-0.4,0.2-0.5,0.4
			c-0.1,0.2-0.2,0.4-0.2,0.6c0,0.3,0.1,0.6,0.4,0.8c0.2,0.2,0.6,0.3,1.1,0.3s0.9-0.1,1.3-0.3c0.4-0.2,0.6-0.5,0.8-0.9
			c0.1-0.3,0.2-0.7,0.2-1.2V876.9L597.3,876.9z"/>
		<path class="st8" d="M601.1,871.9v-1.4h1.2v1.4H601.1z M601.1,880.5v-7.3h1.2v7.3H601.1z"/>
		<path class="st8" d="M604.9,880.5v-7.3h1.1v1c0.5-0.8,1.3-1.2,2.3-1.2c0.4,0,0.8,0.1,1.2,0.2c0.4,0.2,0.6,0.4,0.8,0.6
			c0.2,0.2,0.3,0.6,0.4,0.9c0,0.2,0.1,0.6,0.1,1.2v4.5h-1.2V876c0-0.5,0-0.9-0.1-1.1c-0.1-0.2-0.3-0.4-0.5-0.6
			c-0.2-0.1-0.5-0.2-0.9-0.2c-0.5,0-1,0.2-1.4,0.5c-0.4,0.3-0.6,1-0.6,1.9v4H604.9z"/>
	</g>
</g>
</svg>
